<svg t="1661503593472" class="icon" viewBox="0 0 1024 1024" version="1.1" xmlns="http://www.w3.org/2000/svg" p-id="11835" width="64" height="64"><path d="M40.978062 880.633227A40.978062 40.978062 0 0 0 0 921.611289a40.978062 40.978062 0 0 0 40.978062 40.978062h942.043876a40.978062 40.978062 0 0 0 40.978062-40.978062 40.978062 40.978062 0 0 0-40.978062-40.978062H40.978062z m389.122258-272.622644c-22.633888 0-40.978062 18.344174-40.978062 40.978062s18.344174 40.978062 40.978062 40.978062h552.978062c22.633888 0 40.978062-18.344174 40.978062-40.978062s-18.344174-40.978062-40.978062-40.978062H430.10032zM19.642377 345.54779C12.078933 339.677654 1.185316 344.92691 1.185316 354.352993v315.124683c0 9.482527 11.006504 14.731783 18.457061 8.805204l200.036159-157.53412a11.192768 11.192768 0 0 0 0-17.666851L19.642377 345.54779z m410.457943-11.458053c-22.633888 0-40.978062 18.344174-40.978062 40.978061s18.344174 40.978062 40.978062 40.978062h552.978062c22.633888 0 40.978062-18.344174 40.978062-40.978062s-18.344174-40.978062-40.978062-40.978061H430.10032zM40.978062 61.467093C18.344174 61.467093 0 79.811267 0 102.388711s18.344174 40.978062 40.978062 40.978062h942.043876c22.633888 0 40.978062-18.344174 40.978062-40.978062s-18.344174-40.978062-40.978062-40.978062H40.978062z" p-id="11836"></path></svg>