<svg t="1661740344498" class="icon" viewBox="0 0 1024 1024" version="1.1" xmlns="http://www.w3.org/2000/svg" p-id="4900" width="128" height="128"><path d="M968.604 366.465H762.475c-26.297 0-47.567-21.306-47.567-47.57 0-26.26 21.271-47.567 47.567-47.567h82.748C770.58 165.856 647.837 96.912 508.776 96.912c-227.685 0-412.26 184.576-412.26 412.257 0 227.685 184.576 412.26 412.26 412.26 227.685 0 412.26-184.577 412.26-412.26 0-26.26 21.27-47.567 47.566-47.567 26.263 0 47.57 21.307 47.57 47.567 0 280.226-227.191 507.397-507.396 507.397-280.21 0-507.398-227.17-507.398-507.397 0-280.224 227.189-507.395 507.398-507.395 170.062 0 320.27 83.846 412.259 212.306v-85.457c0-26.263 21.27-47.568 47.566-47.568 26.263 0 47.57 21.305 47.57 47.568v190.273c0.004 26.263-21.307 47.57-47.567 47.57z" p-id="4901"></path></svg>